/* XPM */
static char *icon_tray[] = {
/* columns rows colors chars-per-pixel */
"64 64 231 2 ",
"   c None",
".  c #2D2B27",
"X  c #2E2B26",
"o  c #2D2C27",
"O  c #2E2C26",
"+  c #2E2C27",
"@  c #51251D",
"#  c #5D221A",
"$  c #693A2F",
"%  c #743428",
"&  c #763428",
"*  c #653D31",
"=  c #4B493F",
"-  c #4C493F",
";  c #4C4A3F",
":  c #5C4136",
">  c #53463C",
",  c #5A4338",
"<  c #4B4940",
"1  c #4B4A40",
"2  c #4C4940",
"3  c #4C4A40",
"4  c #4D4B41",
"5  c #4E4C42",
"6  c #4F4D42",
"7  c #504E43",
"8  c #504E44",
"9  c #514F45",
"0  c #535046",
"q  c #59574C",
"w  c #5A584D",
"e  c #5B584D",
"r  c #646156",
"t  c #656357",
"y  c #686353",
"u  c #696453",
"i  c #6A6453",
"p  c #666458",
"a  c #68665A",
"s  c #69675B",
"d  c #726F62",
"f  c #766F62",
"g  c #747062",
"h  c #757265",
"j  c #757266",
"k  c #787465",
"l  c #797566",
"z  c #7B796C",
"x  c #7C796D",
"c  c #7E7C6F",
"v  c #B80F00",
"b  c #AF1406",
"n  c #A8180A",
"m  c #B51102",
"M  c #B11304",
"N  c #B91000",
"B  c #B81001",
"V  c #B91001",
"C  c #B91101",
"Z  c #BA1101",
"A  c #BB1101",
"S  c #BA1301",
"D  c #BA1002",
"F  c #BA1102",
"G  c #BB1102",
"H  c #BA1202",
"J  c #BB1202",
"K  c #BA1203",
"L  c #BA1303",
"P  c #BB1303",
"I  c #BC1101",
"U  c #BC1202",
"Y  c #BD1302",
"T  c #BC1203",
"R  c #BC1303",
"E  c #BC1402",
"W  c #BC1403",
"Q  c #BE1505",
"!  c #BB1B0B",
"~  c #BB1D0D",
"^  c #B81D0E",
"/  c #BA1F0F",
"(  c #9B2012",
")  c #992517",
"_  c #9D291B",
"`  c #9F2D1E",
"'  c #B92A1A",
"]  c #B63627",
"[  c #B83626",
"{  c #B83727",
"}  c #B83929",
"|  c #BB3C2B",
" . c #C61C0A",
".. c #A44E3F",
"X. c #B94130",
"o. c #B94534",
"O. c #B94535",
"+. c #B44A36",
"@. c #B74F3F",
"#. c #B84C3C",
"$. c #C24231",
"%. c #F0462B",
"&. c #F1462B",
"*. c #F1472B",
"=. c #F2462B",
"-. c #F3462B",
";. c #F1462C",
":. c #F1472C",
">. c #F2462C",
",. c #F2472C",
"<. c #F2482D",
"1. c #F2492E",
"2. c #F14C31",
"3. c #F14D33",
"4. c #F14F35",
"5. c #EF573D",
"6. c #EF593F",
"7. c #8B5D49",
"8. c #925B46",
"9. c #B75141",
"0. c #B65949",
"q. c #B65B4B",
"w. c #B76554",
"e. c #B56757",
"r. c #B76857",
"t. c #B66F5E",
"y. c #817D6E",
"u. c #827E6E",
"i. c #827F72",
"p. c #B67160",
"a. c #B67463",
"s. c #B57E6E",
"d. c #EE5A41",
"f. c #EE5D44",
"g. c #ED6148",
"h. c #ED624A",
"j. c #EC644C",
"k. c #EB6850",
"l. c #EB6A52",
"z. c #EB6C55",
"x. c #EA6E57",
"c. c #EA7059",
"v. c #E97660",
"b. c #E47964",
"n. c #E77D67",
"m. c #E87862",
"M. c #E87A64",
"N. c #838072",
"B. c #868273",
"V. c #858274",
"C. c #868375",
"Z. c #868376",
"A. c #878376",
"S. c #868377",
"D. c #878377",
"F. c #868476",
"G. c #878476",
"H. c #878477",
"J. c #8B8878",
"K. c #8E8A7A",
"L. c #8F8B7B",
"P. c #8F8B7C",
"I. c #928E7E",
"U. c #B48372",
"Y. c #B48978",
"T. c #B48B7A",
"R. c #B48C7B",
"E. c #E6826D",
"W. c #E6846F",
"Q. c #E48C77",
"!. c #E48E79",
"~. c #E3907B",
"^. c #928F80",
"/. c #938F80",
"(. c #949080",
"). c #959182",
"_. c #989484",
"`. c #9A978B",
"'. c #9D9989",
"]. c #9D998A",
"[. c #9F9B8B",
"{. c #A19D8C",
"}. c #A19D8D",
"|. c #A29E8E",
" X c #B59483",
".X c #A4A090",
"XX c #A5A191",
"oX c #A8A493",
"OX c #A9A594",
"+X c #A9A595",
"@X c #AAA695",
"#X c #ABA797",
"$X c #ADA998",
"%X c #AEAA99",
"&X c #AEAB9B",
"*X c #B3A190",
"=X c #B2A392",
"-X c #B2A594",
";X c #B0AB9A",
":X c #B0AC9B",
">X c #B1AD9E",
",X c #B3B0A0",
"<X c #B7B3A3",
"1X c #B9B5A5",
"2X c #BCB8A9",
"3X c #BEBBAC",
"4X c #BFBCAD",
"5X c #E29884",
"6X c #E29A86",
"7X c #DFA491",
"8X c #DFA593",
"9X c #DEAD9C",
"0X c #DDAF9E",
"qX c #E0A28F",
"wX c #DCB7A7",
"eX c #DBB9A9",
"rX c #DBBBAB",
"tX c #C9C6B7",
"yX c #CAC6B8",
"uX c #CBC8BA",
"iX c #D9C3B4",
"pX c #D9C5B6",
"aX c #D7CDBE",
"sX c #D7CEBF",
"dX c #D2CFC0",
"fX c #D7CFC1",
"gX c #D3D0C2",
"hX c #D4D1C3",
"jX c #D5D2C4",
"kX c #D6D2C4",
"lX c #D6D3C5",
/* pixels */
"                                    &.&.,.,.,.,.,.,.,.,. .v v v v v v v v V                                                     ",
"                                    ,.,.,.,.,.,.,.,.,.,. .v v v v v v v v v V                                                   ",
"                                  ,.,.,.,.,.,.,.,.,.,.,. .v v v v v v v v v V                                                   ",
"                                  &.,.,.,.l.l.l.l.l.l.l.$.] ] ] ] ] ] / v v v                                                   ",
"                                  &.,.,.2.kXkXkXkXkXkXkX1X:X:X:X:X:X:Xq.v v v                                                   ",
"                                  ,.,.,.g.kXkXkXkXkXkXkX1X:X:X:X:X:X:Xt.v v v                                                   ",
"                                  ,.,.,.v.kXkXkXkXkXkXkX1X:X:X:X:X:X:XT.v v v E                                                 ",
"                                  ,.,.,.Q.kXkXkXkXkXkXkX1X:X:X:X:X:X:X=Xv v v V                                                 ",
"                                  ,.,.,.qXlXkXkXkXkXuXtX#X}.#X:X:X:X:X:X! v v V                                                 ",
"                                &.,.,.,.wXkXkXkXkX,X}.}.u.k k }.:X:X:X:X{ v v v                         = 3 3                   ",
"                                &.,.,.<.aXkXkXkXgX}.}.}.u.k k J.:X:X:X:X#.v v v                       - 3 3 3                   ",
"                                ,.,.,.5.kXkXkXkXkX#X}.}.u.k k _.:X:X:X:Xe.v v v                 V.V.a 3 3 3 <                   ",
"                                ,.,.,.z.kXkXkXkXkXdX3X2X].(.].:X:X:X:X:Xs.v v v Y             H.H.H.H.h 7 -                     ",
"                                ,.,.,.E.kXkXkXkXkXkXkXkX1X:X:X:X:X:X:X:X Xv v v Y             H.H.H.H.H.c                       ",
"                                ,.,.,.5XkXkXkXkXkXkXkXkX1X:X:X:X:X:X:X:X;XV v v V           H.H.H.H.H.H.H.H.                    ",
"                              &.,.,.,.9XkXkXkXkXkXkXkXkX1X:X:X:X:X:X:X:X:X' v v V         V.H.H.H.H.H.H.H.H.                    ",
"                              &.,.,.,.iXkXkXkXlXlXyX>X&XP.B.L.&X:X:X:X:X:XX.v v v         H.H.H.H.H.H.H.V.                      ",
"                              ,.,.,.2.kXkXkXkXkXkXXX}.}.u.k k I.:X:X:X:X:Xq.v v v         x H.H.H.H.H.V.                        ",
"                              ,.,.,.g.kXkXkXkXkXhX}.}.}.u.k k L.:X:X:X:X:Xp.v v v       < 9 h H.H.H.H.                          ",
"                              ,.,.,.m.kXkXkXkXkXkX4XXX}.u.k u.oX:X:X:X:X:XT.v v v Y   3 3 3 3 a V.H.V.                          ",
"                              ,.,.,.!.kXkXkXkXkXkXkXkXkX1X:X:X:X:X:X:X:X:X=Xv v v V   3 3 3 3                                   ",
"                              ,.,.,.7XkXkXkXkXkXkXkXkXkX1X:X:X:X:X:X:X:X:X:X/ v v ( 3 3 3 3 <                                   ",
"                            ,.,.,.,.eXkXkXkXkXkXkXkXkXkX1X:X:X:X:X:X:X:X:X:X{ v n > 3 3 3 3                                     ",
"                            ,.,.,.<.aXkXkXkXkXkXkXkXuXtX#X}.#X:X:X:X:X:X:X:X@.M : 3 3 3 -                                       ",
"                            &.,.,.6.kXkXkXkXkXkXkX,X}.}.u.k k }.:X:X:X:X:X:Xe.$ 3 3 3 <                                         ",
"                            ,.,.,.z.kXkXlXkXkXkXgX}.}.}.u.k k J.:X:X:X:X:X:Xf 3 3 3 <                                           ",
"                            ,.,.,.W.kXkXkXlXkXkXkX#X}.}.u.k k _.:X:X:X:X:XV.3 3 3 3 &                                           ",
"                            ,.,.,.5XkXkXlXlXkXkXkXdX3X2X].(.].:X:X:X:X:X(.6 3 3 3 & V                                           ",
"                          ,.,.,.,.9XkXkXkXkXkXkXkXkXkXkX1X:X:X:X:X:X:X}.0 3 3 3 * m V                                           ",
"                          ,.,.,.,.pXkXkXkXkXkXkXkXkXkXkX1X:X:X:X:X:X#Xw 3 3 3 , b v v                                           ",
"                          &.,.<.4.kXkXkXkXkXkXkXkXkXkXkX1X:X:X:X:X&Xp 3 3 3 9 ..v v v                                           ",
"                          &.,.,.j.kXkXkXkXkXkXkXkXyX>X&XP.B.L.&X:Xh 3 3 3 3 /.a.v v v V                                         ",
"                          ,.,.,.M.kXkXkXkXkXkXkXkXXX}.}.u.k k I.V.3 3 3 3 i.:XR.v v v Y                                         ",
"                          ,.,.,.~.kXkXkXkXkXkXkXhX}.}.}.u.k k g 3 3 3 3 d :X:X-XV v v V                                         ",
"                          ,.,.,.7XkXkXkXlXkXkXkXkX4XXX}.u.k g 6 3 3 3 t &X:X:X:X/ v v V                                         ",
"                        &.,.,.,.eXkXkXkXlXkXkXkXkXkXkXkX1X#Xw 3 3 3 q oX:X:X:X:X} v v v                                         ",
"                        &.,.,.<.fXkXkXkXkXkXkXkXkXkXkXkX<Xt 3 3 3 9 ].:X:X:X:X:X9.v v v                                         ",
"                        &.,.,.d.kXkXkXkXkXkXkXkXkXkXkXkXz 3 3 3 3 /.:X:X:X:X:X:Xr.v v v                                         ",
"                        ,.,.,.c.kXkXkXkXkXkXkXkXkXkXkX`.3 3 3 3 N.:X:X:X:X:X:X:XU.v v v V                                       ",
"                        ,.,.,.f.n.n.n.n.n.n.n.n.n.n.b.+.` ) ) _ o.o.o.o.o.o.o.o.| Y Y Y Q                                       ",
"                        ,.,.,.,.,.,.,.,.,.,.,.,.,.,.,.,. .v v v v v v v v v v v v v v v Y                                       ",
"                      &.,.,.,.,.,.,.,.,.,.,.,.,.,.,.,.,. .v v v v v v v v v v v v v v v V                                       ",
"                      ,.,.,.,.,.,.,.,.,.,.,.,.,.,.,.,.,. .v v v v v v v v v v v v v v v v                                       ",
"                      ,.,.,.,.,.,.,.,.,.,.,.,.,.,.,.,.,. .v v v v v v v v v v v v v v v v                                       ",
"                      ,.,.,.,.,.,.,.,.,.,.,.,.,.,.,.,.,. .v v v v v v v v v v v v v v v v V                                     ",
"                      ,.,.,.,.,.,.,.,.,.,.,.,.,.,.,.,.,. .v v v v v v v v v v v v v v v v E                                     ",
"                      ,.,.,.,.,.,.,.,.,.,.,.,.,.,.,.,.,. .v v v v v v v v v v v v v v v v V                                     ",
"                      ,.,.,.,.,.,.,.,.,.,.,.,.,.,.,.,.,. .v v v v v v v v v v v v v v v v V                                     ",
"                    ,.,.,.,.,.,.,.,.,.,.,.,.,.,.,.,.,.,. .v v v v v v v v v v v v v v v v v                                     ",
"                    ,.,.,.,.,.,.,.,.,.,.,.,.,.,.,.,.,.,. .v v v v v v v v v v v v v v v v v                                     ",
"                    ,.,.,.,.,.,.,.,.,.,.,.,.,.,.,.,.,.,. .v v v v v v v v v v v v v v v v v                                     ",
"                    ,.,.,.,.,.,.,.,.,.,.,.,.,.,.,.,.,.,. .v v v v v v v v v v v v v v v v v V                                   ",
"                    ,.,.,.,.,.,.,.,.,.,.,.,.,.,.,.,.,.,. .v v v v v v v v v v v v v v v v v V                                   ",
"                    ,.,.,.,.,.,.,.,.,.,.,.,.,.,.,.,.,.,. .v v v v v v v v v v v v v v v v v V                                   ",
"                  ,.,.,.,.,.,.,.,.,.,.,.,.,.,.,.,.,.,.,. .v v v v v v v v v v v v v v v v v v                                   ",
"                  ,.,.,.,.,.,.,.,.,.,.,.,.,.,.,.,.,.,.,. .v v v v v v v v v v v v v v v v v v                                   ",
"                  ,.,.,.,.,.,.,.,.,.,.,.,.,.,.,.,.,.,.,. .v v v v v v v v v v v v v v v v v v                                   ",
"                  ,.,.,.,.,.,.,.,.,.,.,.,.,.,.,.,.,.,.,. .v v v v v v v v v v v v v v v v v v V                                 ",
"                  ,.,.,.,.,.,.,.,.,.,.,.,.,.,.,.,.,.,.,. .v v v v v v v v v v v v v v v v v v V                                 ",
"                  &.,.,.,.,.,.,.,.,.,.,.,.,.,.,.,.,.,.,. .v v v v v v v v v v v v v v v v v V                                   ",
"                        7.7.7.8.                                                  @ @ @ #                                       ",
"                        u u u y                                                   + + + .                                       ",
"                        u u u                                                     + + + +                                       ",
"                        u u y                                                       + .                                         "
};
