/* XPM */
static const char *tray_clock_xpm[] = {
/* columns rows colors chars-per-pixel */
"48 48 2 1 ",
"  c None",
". c #43CC00",
/* pixels */
"                                                ",
"                                                ",
"                                                ",
"                                                ",
"            ..                    ..            ",
"           ....                  ....           ",
"          .....                  .....          ",
"         ......                  ......         ",
"       .......      ........      .......       ",
"      ......     ..............    .......      ",
"     ......    ..................    ......     ",
"    ......   ......................   ......    ",
"     ....   ........        ........   ....     ",
"      ..   .......            .......   ..      ",
"          ......                ......          ",
"         ......                  ......         ",
"         .....        ...         .....         ",
"        .....         ...          .....        ",
"        ....          ...           ....        ",
"       .....          ...           .....       ",
"       ....           ...            ....       ",
"       ....           ...            ....       ",
"      ....            ...             ....      ",
"      ....            ...             ....      ",
"      ....            ...             ....      ",
"      ....            ...             ....      ",
"      ....            ...             ....      ",
"      ....            .....           ....      ",
"      ....             .....          ....      ",
"      ....              ......        ....      ",
"       ....               ......     ....       ",
"       ....                 .....    ....       ",
"       .....                 ...    .....       ",
"        ....                        ....        ",
"        .....                      .....        ",
"         .....                    .....         ",
"         ......                  ......         ",
"          ......                ......          ",
"           .......            .......           ",
"            ........        ........            ",
"             ......................             ",
"               ..................               ",
"                 ..............                 ",
"                    ........                    ",
"                                                ",
"                                                ",
"                                                ",
"                                                "
};

/* Image credits: Google Material Design (modified) */
