<?xml version="1.0" encoding="UTF-8" standalone="no"?>
<!-- Created with Inkscape (http://www.inkscape.org/) -->

<svg
   width="210mm"
   height="297mm"
   viewBox="0 0 210 297"
   version="1.1"
   id="svg1"
   inkscape:version="1.3 (0e150ed6c4, 2023-07-21)"
   sodipodi:docname="metronome.svg"
   xmlns:inkscape="http://www.inkscape.org/namespaces/inkscape"
   xmlns:sodipodi="http://sodipodi.sourceforge.net/DTD/sodipodi-0.dtd"
   xmlns="http://www.w3.org/2000/svg"
   xmlns:svg="http://www.w3.org/2000/svg"
   xmlns:rdf="http://www.w3.org/1999/02/22-rdf-syntax-ns#"
   xmlns:cc="http://creativecommons.org/ns#"
   xmlns:dc="http://purl.org/dc/elements/1.1/">
  <title
     id="title1">Metronome Icon</title>
  <sodipodi:namedview
     id="namedview1"
     pagecolor="#ffffff"
     bordercolor="#000000"
     borderopacity="0.25"
     inkscape:showpageshadow="2"
     inkscape:pageopacity="0.0"
     inkscape:pagecheckerboard="0"
     inkscape:deskcolor="#d1d1d1"
     inkscape:document-units="mm"
     inkscape:zoom="0.70737049"
     inkscape:cx="679.98313"
     inkscape:cy="570.42244"
     inkscape:window-width="1920"
     inkscape:window-height="1009"
     inkscape:window-x="-8"
     inkscape:window-y="-8"
     inkscape:window-maximized="1"
     inkscape:current-layer="layer1" />
  <defs
     id="defs1">
    <inkscape:path-effect
       effect="fillet_chamfer"
       id="path-effect2"
       is_visible="true"
       lpeversion="1"
       nodesatellites_param="F,0,0,1,0,0,0,1 @ F,0,0,1,0,0,0,1 @ F,0,0,1,0,0,0,1 @ F,0,0,1,0,0,0,1 @ F,0,0,1,0,0,0,1 @ F,0,0,1,0,0,0,1 @ F,0,0,1,0,0,0,1 @ F,0,0,1,0,0,0,1 @ F,0,1,1,0,8.121767,0,1 @ F,0,0,1,0,8.121767,0,1 @ F,0,0,1,0,0,0,1 @ F,0,0,1,0,0,0,1 @ F,0,0,1,0,0,0,1 @ F,0,0,1,0,0,0,1 @ F,0,0,1,0,0,0,1 @ F,0,0,1,0,0,0,1 @ F,0,0,1,0,0,0,1"
       radius="0"
       unit="px"
       method="auto"
       mode="F"
       chamfer_steps="1"
       flexible="false"
       use_knot_distance="true"
       apply_no_radius="true"
       apply_with_radius="true"
       only_selected="false"
       hide_knots="false" />
    <inkscape:path-effect
       effect="fillet_chamfer"
       id="path-effect1"
       is_visible="true"
       lpeversion="1"
       nodesatellites_param="F,0,0,1,0,15.510481,0,1 @ F,0,1,1,0,15.510481,0,1 @ F,0,0,1,0,12.794084,0,1 @ F,0,0,1,0,27.158281,0,1 @ F,0,0,1,0,12.794084,0,1"
       radius="0"
       unit="px"
       method="auto"
       mode="F"
       chamfer_steps="1"
       flexible="false"
       use_knot_distance="true"
       apply_no_radius="true"
       apply_with_radius="true"
       only_selected="false"
       hide_knots="false" />
    <inkscape:path-effect
       effect="fillet_chamfer"
       id="path-effect1-1"
       is_visible="true"
       lpeversion="1"
       nodesatellites_param="F,0,0,1,0,15.510481,0,1 @ F,0,1,1,0,15.510481,0,1 @ F,0,0,1,0,12.794084,0,1 @ F,0,0,1,0,27.158281,0,1 @ F,0,0,1,0,12.794084,0,1"
       radius="0"
       unit="px"
       method="auto"
       mode="F"
       chamfer_steps="1"
       flexible="false"
       use_knot_distance="true"
       apply_no_radius="true"
       apply_with_radius="true"
       only_selected="false"
       hide_knots="false" />
    <inkscape:path-effect
       effect="fillet_chamfer"
       id="path-effect2-3"
       is_visible="true"
       lpeversion="1"
       nodesatellites_param="F,0,0,1,0,0,0,1 @ F,0,0,1,0,0,0,1 @ F,0,0,1,0,0,0,1 @ F,0,0,1,0,0,0,1 @ F,0,0,1,0,0,0,1 @ F,0,0,1,0,0,0,1 @ F,0,0,1,0,0,0,1 @ F,0,0,1,0,0,0,1 @ F,0,1,1,0,8.121767,0,1 @ F,0,0,1,0,8.121767,0,1 @ F,0,0,1,0,0,0,1 @ F,0,0,1,0,0,0,1 @ F,0,0,1,0,0,0,1 @ F,0,0,1,0,0,0,1 @ F,0,0,1,0,0,0,1 @ F,0,0,1,0,0,0,1 @ F,0,0,1,0,0,0,1"
       radius="0"
       unit="px"
       method="auto"
       mode="F"
       chamfer_steps="1"
       flexible="false"
       use_knot_distance="true"
       apply_no_radius="true"
       apply_with_radius="true"
       only_selected="false"
       hide_knots="false" />
  </defs>
  <g
     inkscape:label="Layer 1"
     inkscape:groupmode="layer"
     id="layer1">
    <rect
       style="fill:#1a1a1a;stroke-width:3.175;stroke-dasharray:none"
       id="rect1"
       width="143.63052"
       height="17.20575"
       x="23.910908"
       y="275.29184"
       ry="5.4797049" />
    <path
       id="path1"
       style="fill:#d40000;stroke-width:3.175;stroke-dasharray:none"
       inkscape:transform-center-x="0.62614979"
       inkscape:transform-center-y="-12.699987"
       d="m 165.29236,286.29462 -139.046062,0.007 A 14.379551,14.379551 47.164149 0 1 11.907136,270.83566 L 29.231818,42.07909 A 19.110794,19.110794 128.13206 0 1 42.361275,25.353755 l 27.768756,-9.058453 a 82.560572,82.560572 0.14175103 0 1 51.596509,0.127651 l 26.71397,8.860855 a 19.274524,19.274524 51.925855 0 1 13.147,16.782589 l 17.99876,228.764793 a 14.338753,14.338753 132.74933 0 1 -14.29391,15.46343 z"
       sodipodi:nodetypes="cccccc"
       inkscape:path-effect="#path-effect1"
       inkscape:original-d="M 180.80284,286.29389 10.735817,286.30185 30.198,29.32154 95.949281,7.8727974 160.584,29.311729 Z"
       transform="translate(0,-2.6182649)" />
    <path
       d="m 251.82856,4.1077596 c -3.58502,-0.00886 -7.16507,0.2672728 -10.70633,0.8257894 -3.54123,0.5585005 -7.03246,1.3976124 -10.4407,2.5094075 l -22.75314,7.4222865 c -1.46643,0.47849 -2.85411,1.171025 -4.11809,2.055171 -1.26402,0.883974 -2.3905,1.949855 -3.34295,3.163115 -0.95241,1.213226 -1.72034,2.560508 -2.27893,3.998205 -0.5587,1.437704 -0.90192,2.950066 -1.01854,4.488098 L 187.51147,156.1038 a 7.5299462,7.5299462 47.16543 0 0 7.50845,8.09858 h 113.15115 a 7.5078556,7.5078556 132.75065 0 0 7.48473,-8.09674 L 305.62062,28.559497 c -0.12121,-1.540539 -0.46787,-3.054948 -1.02888,-4.494816 -0.56095,-1.439817 -1.33016,-2.789517 -2.28306,-4.005957 -0.95297,-1.216341 -2.07929,-2.286246 -3.34295,-3.175517 -1.26361,-0.88949 -2.65092,-1.588716 -4.11758,-2.075325 L 272.95905,7.5478597 C 269.5563,6.419191 266.06922,5.5627991 262.53075,4.9867757 258.99228,4.410652 255.41361,4.1167209 251.82856,4.1077596 Z"
       style="fill:#c8b7b7;stroke-width:3.175"
       id="path2"
       sodipodi:nodetypes="cssccscccccscccccc"
       inkscape:path-effect="#path-effect2"
       inkscape:original-d="m 251.82856,4.1077596 c -3.58502,-0.00886 -7.16507,0.2672728 -10.70633,0.8257894 -3.54123,0.5585005 -7.03246,1.3976124 -10.4407,2.5094075 l -22.75314,7.4222865 c -1.46643,0.47849 -2.85411,1.171025 -4.11809,2.055171 -1.26402,0.883974 -2.3905,1.949855 -3.34295,3.163115 -0.95241,1.213226 -1.72034,2.560508 -2.27893,3.998205 -0.5587,1.437704 -0.90192,2.950066 -1.01854,4.488098 L 186.89815,164.20238 H 316.29284 L 305.62062,28.559497 c -0.12121,-1.540539 -0.46787,-3.054948 -1.02888,-4.494816 -0.56095,-1.439817 -1.33016,-2.789517 -2.28306,-4.005957 -0.95297,-1.216341 -2.07929,-2.286246 -3.34295,-3.175517 -1.26361,-0.88949 -2.65092,-1.588716 -4.11758,-2.075325 L 272.95905,7.5478597 C 269.5563,6.419191 266.06922,5.5627991 262.53075,4.9867757 258.99228,4.410652 255.41361,4.1167209 251.82856,4.1077596 Z"
       transform="translate(-155.85746,17.205741)" />
    <path
       d="m 145.61941,36.405216 a 71.281261,119.71735 26.366459 0 1 0.30127,0.991154 71.281261,119.71735 26.366459 0 1 1.96474,12.163598 71.281261,119.71735 26.366459 0 1 0.55345,13.120646 71.281261,119.71735 26.366459 0 1 -0.86919,13.852385 71.281261,119.71735 26.366459 0 1 -2.27532,14.347961 71.281261,119.71735 26.366459 0 1 -3.6437,14.59756 71.281261,119.71735 26.366459 0 1 -1.5534,5.01778 71.281261,119.71735 26.366459 0 1 -1.70428,5.00745 71.281261,119.71735 26.366459 0 1 -1.85105,4.98729 71.281261,119.71735 26.366459 0 1 -1.99471,4.9568 71.281261,119.71735 26.366459 0 1 -2.13372,4.91702 71.281261,119.71735 26.366459 0 1 -2.26912,4.86688 71.281261,119.71735 26.366459 0 1 -2.39933,4.80643 71.281261,119.71735 26.366459 0 1 -2.52543,4.73717 71.281261,119.71735 26.366459 0 1 -2.64583,4.65812 71.281261,119.71735 26.366459 0 1 -2.76108,4.56975 71.281261,119.71735 26.366459 0 1 -2.87062,4.47156 71.281261,119.71735 26.366459 0 1 -2.9745,4.36511 71.281261,119.71735 26.366459 0 1 -3.07268,4.24987 71.281261,119.71735 26.366459 0 1 -3.16415,4.12532 71.281261,119.71735 26.366459 0 1 -3.24941,3.99304 71.281261,119.71735 26.366459 0 1 -3.32848,3.85248 71.281261,119.71735 26.366459 0 1 -2.063942,2.24896 h 53.084602 a 7.5078556,7.5078556 0 0 0 1.36788,-0.12557 7.5078556,7.5078556 0 0 0 1.3224,-0.37311 7.5078556,7.5078556 0 0 0 1.23248,-0.60771 7.5078556,7.5078556 0 0 0 1.10071,-0.82166 7.5078556,7.5078556 0 0 0 0.93276,-1.00924 7.5078556,7.5078556 0 0 0 0.73328,-1.16169 7.5078556,7.5078556 0 0 0 0.50902,-1.2764 7.5078556,7.5078556 0 0 0 0.2682,-1.34721 7.5078556,7.5078556 0 0 0 0.0176,-1.37407 L 149.62278,45.666666 c -0.0606,-0.770269 -0.17739,-1.53398 -0.34933,-2.285132 -0.17194,-0.751152 -0.39904,-1.489751 -0.67955,-2.209684 -0.28047,-0.719908 -0.61272,-1.417238 -0.99425,-2.086695 -0.38153,-0.669456 -0.81236,-1.311043 -1.28881,-1.919262 -0.21189,-0.270448 -0.4628,-0.505084 -0.69143,-0.760677 z"
       style="fill:#e3dbdb;stroke-width:3.175"
       id="path5" />
    <rect
       style="fill:#ff2a2a;stroke-width:3.11982;stroke-dasharray:none"
       id="rect3"
       width="130.16518"
       height="65.830658"
       x="30.643581"
       y="199.25508"
       ry="7.0174847" />
    <rect
       style="fill:#782121;stroke-width:3.175;stroke-dasharray:none"
       id="rect2-5"
       width="107.7229"
       height="2.9923029"
       x="41.864719"
       y="250.95232"
       ry="1.4961514" />
    <rect
       style="fill:#782121;stroke-width:3.175;stroke-dasharray:none"
       id="rect2-9"
       width="107.7229"
       height="2.9923029"
       x="41.864719"
       y="230.67432"
       ry="1.4961514" />
    <rect
       style="fill:#782121;stroke-width:3.175;stroke-dasharray:none"
       id="rect2-51"
       width="107.7229"
       height="2.9923029"
       x="41.864719"
       y="210.39632"
       ry="1.4961514" />
    <rect
       style="fill:#999999;stroke-width:3.47539;stroke-dasharray:none"
       id="rect6"
       width="31.045147"
       height="146.99687"
       x="79.296021"
       y="34.411472"
       ry="1.7926449" />
    <path
       d="m 109.50828,181.30853 c 0.0286,-0.01 0.0627,-0.006 0.0904,-0.0181 0.17912,-0.0755 0.34073,-0.18518 0.47594,-0.32039 0.13522,-0.13522 0.24437,-0.29631 0.31988,-0.47542 0.0755,-0.17912 0.11731,-0.37621 0.11731,-0.58343 v -12.44575 a 71.281261,119.71735 26.366459 0 1 -2.87528,3.74861 71.281261,119.71735 26.366459 0 1 -3.24941,3.99303 71.281261,119.71735 26.366459 0 1 -3.32848,3.85248 71.281261,119.71735 26.366459 0 1 -2.063954,2.24896 z"
       style="fill:#b3b3b3;stroke-width:3.175"
       id="path6" />
    <rect
       style="fill:#4d4d4d;stroke-width:3.175;stroke-dasharray:none"
       id="rect5-26"
       width="23.190346"
       height="7.4807568"
       x="83.096565"
       y="44.059494"
       ry="1.4961514" />
    <rect
       style="fill:#4d4d4d;stroke-width:3.175;stroke-dasharray:none"
       id="rect5-1"
       width="23.190346"
       height="7.4807568"
       x="83.096565"
       y="67.792389"
       ry="1.4961514" />
    <rect
       style="fill:#4d4d4d;stroke-width:3.175;stroke-dasharray:none"
       id="rect5-3"
       width="23.190346"
       height="7.4807568"
       x="83.096565"
       y="91.525291"
       ry="1.4961514" />
    <rect
       style="fill:#4d4d4d;stroke-width:3.175;stroke-dasharray:none"
       id="rect5-6"
       width="23.190346"
       height="7.4807568"
       x="83.096565"
       y="162.72398"
       ry="1.4961514" />
    <rect
       style="fill:#4d4d4d;stroke-width:3.175;stroke-dasharray:none"
       id="rect5-0"
       width="23.190346"
       height="7.4807568"
       x="83.096565"
       y="115.25819"
       ry="1.4961514" />
    <rect
       style="fill:#4d4d4d;stroke-width:3.175;stroke-dasharray:none"
       id="rect5-2"
       width="23.190346"
       height="7.4807568"
       x="83.096565"
       y="138.99109"
       ry="1.4961514" />
    <path
       d="m 182.20645,38.054008 c -0.19426,-0.0068 -0.38633,0.0246 -0.56586,0.09043 -0.17954,0.06584 -0.3466,0.16585 -0.49041,0.296622 -0.14382,0.130772 -0.26429,0.292061 -0.3514,0.480075 L 114.68861,181.59512 h 9.89397 L 188.94351,42.695585 c 0.0871,-0.188014 0.13221,-0.384512 0.13901,-0.578776 0.007,-0.194263 -0.0246,-0.386326 -0.0904,-0.565857 -0.0658,-0.179532 -0.16585,-0.346593 -0.29662,-0.490409 -0.13077,-0.143816 -0.29258,-0.264799 -0.48059,-0.351917 l -5.42964,-2.515608 c -0.18802,-0.08712 -0.38451,-0.132216 -0.57878,-0.13901 z"
       style="fill:#666666;stroke-width:3.175"
       id="path16" />
    <path
       d="m 155.94684,53.423958 -7.57784,29.421088 27.96611,12.95847 17.6067,-24.76329 z"
       style="fill:#999999;stroke-width:2.49948"
       id="path9" />
    <path
       d="m 178.0439,63.662235 a 29.88677,65.856689 0 0 1 -0.0233,0.77824 29.88677,65.856689 0 0 1 -0.76274,8.4491 29.88677,65.856689 0 0 1 -1.25677,8.15713 29.88677,65.856689 0 0 1 -1.72858,7.72614 29.88677,65.856689 0 0 1 -1.61334,5.320095 l 3.80649,1.76371 17.60668,-24.762835 z"
       style="fill:#b3b3b3;stroke-width:2.49948"
       id="path14" />
  </g>
  <metadata
     id="metadata1">
    <rdf:RDF>
      <cc:Work
         rdf:about="">
        <dc:title>Metronome Icon</dc:title>
        <dc:date>2023/12/01</dc:date>
        <dc:creator>
          <cc:Agent>
            <dc:title>Francesco Garosi</dc:title>
          </cc:Agent>
        </dc:creator>
        <dc:subject>
          <rdf:Bag>
            <rdf:li>metronome icon</rdf:li>
          </rdf:Bag>
        </dc:subject>
        <dc:description>Simple metronome icon designed for use in whenever_tray:&#10;https://github.com/almostearthling/whenever_tray</dc:description>
        <dc:rights>
          <cc:Agent>
            <dc:title>Francesco Garosi</dc:title>
          </cc:Agent>
        </dc:rights>
        <cc:license
           rdf:resource="http://creativecommons.org/licenses/by/4.0/" />
      </cc:Work>
      <cc:License
         rdf:about="http://creativecommons.org/licenses/by/4.0/">
        <cc:permits
           rdf:resource="http://creativecommons.org/ns#Reproduction" />
        <cc:permits
           rdf:resource="http://creativecommons.org/ns#Distribution" />
        <cc:requires
           rdf:resource="http://creativecommons.org/ns#Notice" />
        <cc:requires
           rdf:resource="http://creativecommons.org/ns#Attribution" />
        <cc:permits
           rdf:resource="http://creativecommons.org/ns#DerivativeWorks" />
      </cc:License>
    </rdf:RDF>
  </metadata>
</svg>
